<svg width="92" height="10" viewBox="0 0 92 10" fill="none" xmlns="http://www.w3.org/2000/svg">
<path d="M3.31052 10C4.04769 10 4.71069 9.88175 5.29952 9.64525C5.89285 9.40428 6.36257 9.06069 6.70868 8.61446C7.05479 8.16377 7.22785 7.62383 7.22785 6.99465C7.22785 6.27622 7.01659 5.66711 6.59406 5.16734C6.17154 4.6631 5.54225 4.26818 4.70619 3.9826L3.91733 3.72155C3.31052 3.51183 2.85878 3.27532 2.56211 3.01205C2.26545 2.74431 2.11711 2.39848 2.11711 1.97456C2.11711 1.55511 2.26994 1.21374 2.5756 0.950469C2.88125 0.687193 3.32625 0.555556 3.91059 0.555556C4.31513 0.555556 4.67922 0.651495 5.00286 0.843373C5.33099 1.03525 5.60743 1.31191 5.83217 1.67336C6.05692 2.03034 6.22323 2.45872 6.33111 2.9585H6.70868L6.648 0.629183C6.37831 0.450692 6.00523 0.301205 5.52877 0.180723C5.0568 0.060241 4.51291 0 3.89711 0C3.11049 0 2.42726 0.11602 1.84742 0.348059C1.26757 0.580098 0.818077 0.912539 0.498937 1.34538C0.184292 1.77822 0.0269696 2.29585 0.0269696 2.89826C0.0269696 3.59884 0.244974 4.19233 0.680982 4.67871C1.12149 5.16064 1.75302 5.53994 2.5756 5.8166L3.36446 6.07764C3.98476 6.29183 4.43425 6.54172 4.71293 6.82731C4.99612 7.1129 5.13771 7.47211 5.13771 7.90495C5.13771 8.36011 4.96915 8.73048 4.63203 9.01606C4.2994 9.30165 3.84766 9.44444 3.2768 9.44444C2.94418 9.44444 2.62279 9.38643 2.31264 9.27042C2.00249 9.14993 1.71931 8.97367 1.4631 8.74163C1.20689 8.50959 0.98439 8.22624 0.795603 7.89157C0.611311 7.55689 0.471968 7.17091 0.377574 6.7336H0L0.0943936 9.30388C0.427018 9.50022 0.874264 9.66533 1.43613 9.7992C2.00249 9.93307 2.62729 10 3.31052 10Z" fill="#784A14"/>
<path d="M22.7488 8.00535L19.9508 0.167336H18.2989L15.5345 7.81794C15.3817 8.23739 15.2446 8.55645 15.1232 8.7751C15.0063 8.99375 14.8715 9.14993 14.7187 9.24364C14.5703 9.33289 14.3725 9.39759 14.1253 9.43775V9.83266H16.9571V9.43775C16.638 9.38867 16.4065 9.31727 16.2627 9.22356C16.1233 9.12539 16.0559 8.96921 16.0604 8.75502C16.0649 8.54083 16.1301 8.23516 16.2559 7.83802L18.2854 1.64659H18.1101L20.2272 7.95181C20.3486 8.31325 20.407 8.59438 20.4025 8.79518C20.398 8.99152 20.3238 9.13655 20.18 9.23025C20.0406 9.32396 19.8204 9.39313 19.5192 9.43775V9.83266H24.0636V9.43775C23.8299 9.39759 23.6388 9.33512 23.4905 9.25033C23.3422 9.16109 23.2118 9.02053 23.0994 8.82865C22.9916 8.63677 22.8747 8.36234 22.7488 8.00535ZM16.3436 6.55288H20.8273L20.6385 6.01071H16.5324L16.3436 6.55288Z" fill="#784A14"/>
<path d="M34.5952 8.58768V1.41232C34.5952 1.22044 34.6177 1.07095 34.6627 0.963855C34.7076 0.85676 34.793 0.774208 34.9189 0.716198C35.0492 0.658188 35.2403 0.609103 35.492 0.568942V0.167336H31.2712V0.562249C31.5409 0.606872 31.7432 0.660419 31.878 0.722892C32.0174 0.785364 32.1095 0.872378 32.1545 0.983936C32.2039 1.09549 32.2287 1.25167 32.2287 1.45248V8.54752C32.2287 8.74386 32.2039 8.90004 32.1545 9.01606C32.1095 9.12762 32.0174 9.21464 31.878 9.27711C31.7432 9.33512 31.5409 9.38867 31.2712 9.43775V9.83266H35.492V9.43775C35.2403 9.39759 35.0492 9.34851 34.9189 9.2905C34.793 9.22802 34.7076 9.14324 34.6627 9.03614C34.6177 8.92905 34.5952 8.77956 34.5952 8.58768ZM40.8859 8.54752V1.45248C40.8859 1.25167 40.9084 1.09549 40.9533 0.983936C41.0028 0.867916 41.0949 0.780901 41.2298 0.722892C41.3691 0.660419 41.5714 0.606872 41.8366 0.562249V0.167336H37.6226V0.562249C37.8788 0.60241 38.0698 0.651495 38.1957 0.709505C38.3215 0.767515 38.4069 0.852298 38.4519 0.963855C38.4968 1.07095 38.5193 1.22044 38.5193 1.41232V8.58768C38.5193 8.77956 38.4968 8.93128 38.4519 9.04284C38.4069 9.14993 38.3215 9.23249 38.1957 9.2905C38.0698 9.34851 37.8788 9.39759 37.6226 9.43775V9.83266H41.8366V9.43775C41.5714 9.39313 41.3691 9.34181 41.2298 9.2838C41.0949 9.22133 41.0028 9.13432 40.9533 9.02276C40.9084 8.90674 40.8859 8.74833 40.8859 8.54752ZM33.4153 5.14056H39.6992V4.63855H33.4153V5.14056Z" fill="#784A14"/>
<path d="M57.6475 8.00535L54.8494 0.167336H53.1975L50.4331 7.81794C50.2803 8.23739 50.1432 8.55645 50.0218 8.7751C49.905 8.99375 49.7701 9.14993 49.6173 9.24364C49.469 9.33289 49.2712 9.39759 49.024 9.43775V9.83266H51.8558V9.43775C51.5366 9.38867 51.3051 9.31727 51.1613 9.22356C51.022 9.12539 50.9545 8.96921 50.959 8.75502C50.9635 8.54083 51.0287 8.23516 51.1546 7.83802L53.184 1.64659H53.0087L55.1258 7.95181C55.2472 8.31325 55.3056 8.59438 55.3011 8.79518C55.2966 8.99152 55.2225 9.13655 55.0786 9.23025C54.9393 9.32396 54.719 9.39313 54.4179 9.43775V9.83266H58.9623V9.43775C58.7285 9.39759 58.5375 9.33512 58.3892 9.25033C58.2408 9.16109 58.1105 9.02053 57.9981 8.82865C57.8902 8.63677 57.7733 8.36234 57.6475 8.00535ZM51.2422 6.55288H55.7259L55.5371 6.01071H51.431L51.2422 6.55288Z" fill="#784A14"/>
<path d="M74.6586 2.73092C74.6541 2.2133 74.5035 1.76261 74.2068 1.37885C73.9101 0.995091 73.4584 0.698349 72.8516 0.488621C72.2493 0.274431 71.4874 0.167336 70.5659 0.167336H66.1699V0.562249C66.4396 0.606872 66.6418 0.660419 66.7767 0.722892C66.916 0.780901 67.0082 0.867916 67.0531 0.983936C67.1026 1.09549 67.1273 1.25167 67.1273 1.45248V8.54752C67.1273 8.74386 67.1026 8.90004 67.0531 9.01606C67.0082 9.12762 66.916 9.21464 66.7767 9.27711C66.6418 9.33512 66.4396 9.38867 66.1699 9.43775V9.83266H70.3906V9.43775C70.1389 9.39313 69.9479 9.34181 69.8175 9.2838C69.6917 9.22579 69.6063 9.14324 69.5613 9.03614C69.5164 8.92459 69.4939 8.7751 69.4939 8.58768V5.41499H70.6738L72.7437 9.83266H75.4542V9.45783C75.3283 9.41321 75.2047 9.34181 75.0833 9.24364C74.9665 9.14547 74.8316 8.9826 74.6788 8.75502C74.526 8.52298 74.3372 8.18385 74.1124 7.73762L72.5819 4.57831V5C72.9595 4.9286 73.3056 4.79473 73.6202 4.59839C73.9394 4.39759 74.1911 4.14101 74.3754 3.82865C74.5642 3.51183 74.6586 3.14592 74.6586 2.73092ZM72.3392 2.83802C72.3392 3.49844 72.1414 4.00714 71.7458 4.36412C71.3503 4.71664 70.8199 4.90629 70.1546 4.93307L69.4939 4.95984V0.62249L70.0535 0.64257C70.5794 0.664882 71.0087 0.771977 71.3413 0.963855C71.6784 1.15127 71.9279 1.40562 72.0897 1.72691C72.256 2.04819 72.3392 2.41856 72.3392 2.83802Z" fill="#784A14"/>
<path d="M90.6852 8.00535L87.8871 0.167336H86.2353L83.4709 7.81794C83.318 8.23739 83.1809 8.55645 83.0596 8.7751C82.9427 8.99375 82.8079 9.14993 82.655 9.24364C82.5067 9.33289 82.3089 9.39759 82.0617 9.43775V9.83266H84.8935V9.43775C84.5744 9.38867 84.3429 9.31727 84.199 9.22356C84.0597 9.12539 83.9923 8.96921 83.9968 8.75502C84.0013 8.54083 84.0664 8.23516 84.1923 7.83802L86.2218 1.64659H86.0465L88.1636 7.95181C88.2849 8.31325 88.3434 8.59438 88.3389 8.79518C88.3344 8.99152 88.2602 9.13655 88.1164 9.23025C87.977 9.32396 87.7568 9.39313 87.4556 9.43775V9.83266H92V9.43775C91.7663 9.39759 91.5752 9.33512 91.4269 9.25033C91.2786 9.16109 91.1482 9.02053 91.0358 8.82865C90.928 8.63677 90.8111 8.36234 90.6852 8.00535ZM84.28 6.55288H88.7636L88.5749 6.01071H84.4687L84.28 6.55288Z" fill="#784A14"/>
</svg>
